<?xml version="1.0" standalone="no"?>
<!DOCTYPE svg PUBLIC "-//W3C//DTD SVG 20010904//EN"
 "http://www.w3.org/TR/2001/REC-SVG-20010904/DTD/svg10.dtd">
<svg version="1.0" xmlns="http://www.w3.org/2000/svg"
 width="980.000000pt" height="980.000000pt" viewBox="0 0 980.000000 980.000000"
 preserveAspectRatio="xMidYMid meet">

<g transform="translate(0.000000,980.000000) scale(0.100000,-0.100000)"
fill="#000000" stroke="none">
<path d="M0 4900 l0 -4900 4900 0 4900 0 0 4900 0 4900 -4900 0 -4900 0 0
-4900z m3115 1819 c116 -107 241 -224 278 -259 47 -43 71 -60 76 -52 6 9 72
12 261 10 l254 -3 105 -352 106 -353 192 -180 c105 -99 194 -180 197 -180 3 0
6 241 6 535 l0 535 228 -2 227 -3 3 -759 c2 -593 5 -762 15 -768 9 -6 13 152
17 760 l5 767 228 3 227 2 0 -1021 0 -1022 53 -56 c28 -31 113 -121 187 -201
74 -80 164 -175 199 -212 l64 -68 144 0 143 0 0 -153 c0 -144 1 -155 22 -178
38 -41 289 -310 369 -394 159 -168 259 -278 254 -283 -8 -8 16 -32 26 -26 5 3
8 0 7 -8 -2 -7 3 -12 10 -10 8 1 11 -2 7 -9 -5 -7 -24 5 -54 33 -25 24 -82 77
-126 118 -44 41 -116 108 -160 150 -273 258 -347 323 -354 312 -6 -9 -151 -12
-627 -10 l-619 3 -3 599 c-2 465 -5 602 -15 608 -9 6 -13 -120 -17 -600 l-5
-607 -245 0 -245 0 -22 65 c-12 36 -71 218 -132 405 -60 187 -189 583 -285
881 -97 298 -177 547 -178 555 -2 8 -5 -418 -8 -946 l-5 -960 -225 0 -225 0
-3 1442 -2 1442 -69 73 c-353 375 -608 654 -604 661 3 4 28 -14 57 -40 28 -26
146 -136 261 -244z"/>
<path d="M2890 6905 c52 -55 201 -208 330 -340 130 -132 357 -364 505 -515
677 -690 813 -828 1165 -1180 351 -351 514 -512 1130 -1114 135 -132 360 -353
500 -490 140 -138 300 -294 355 -346 l100 -95 -115 120 c-63 66 -234 242 -380
390 -146 149 -551 562 -900 919 -349 356 -954 961 -1345 1344 -390 382 -829
813 -975 956 -146 144 -310 304 -365 356 l-100 95 95 -100z"/>
<path d="M4300 5355 c10 -32 83 -280 200 -675 40 -135 76 -252 81 -260 5 -8 8
134 8 320 l0 335 -149 155 c-112 116 -147 147 -140 125z"/>
<path d="M5540 3991 l0 -151 160 0 c94 0 160 4 160 9 0 6 -8 16 -19 23 -10 7
-78 69 -150 138 -73 69 -137 127 -142 128 -5 2 -9 -62 -9 -147z"/>
</g>
</svg>
